# xmcd CD database file
#
# Track frame offsets:
#	150
#	14248
#	33598
#	50788
#	75520
#	93625
#	112675
#	133773
#	159400
#	174650
#
# Disc length: 2497 seconds
#
# Revision: 0
# Processed by: cddbd v1.5.1PL0 Copyright (c) Steve Scherf et al.
# Submitted via: CDex 1.51
#
DISCID=8109bf0a
DTITLE=Various Artist - ビーファイターカブト　ソング・コレクション Vol.2
DYEAR=1996
DGENRE=Anime
TTITLE0=樫原信彦/ビーファイターカブト
TTITLE1=遠藤正明/SAVING THE WORLD〜夢は野望に負けない〜
TTITLE2=小西一弘/ビークラッシャー〜恐怖の四鎧将〜
TTITLE3=石原慎一/幾千の光集まる時〜大甲神カブテリオスのテーマ〜
TTITLE4=中里栄臣、安達直人、栗栖ゆきな/Here We Go！
TTITLE5=石原慎一/恐怖の軍団
TTITLE6=遠藤正明/Get up！Stand up！
TTITLE7=プリティキャスト/か・わ・ゆ・いガンバ！−ＹＵＩのテーマ−
TTITLE8=樫原信彦/Last Soldier
TTITLE9=樫原信彦/大声で歌えば
EXTD=YEAR: 1996
EXTT0=
EXTT1=
EXTT2=
EXTT3=
EXTT4=
EXTT5=
EXTT6=
EXTT7=
EXTT8=
EXTT9=
PLAYORDER=
